<?xml version="1.0" encoding="UTF-8" standalone="no"?>
<!-- Generator: Adobe Illustrator 19.0.0, SVG Export Plug-In . SVG Version: 6.00 Build 0)  -->

<svg
   version="1.1"
   id="Layer_1"
   x="0px"
   y="0px"
   viewBox="0 0 512 512"
   style="enable-background:new 0 0 512 512;"
   xml:space="preserve"
   sodipodi:docname="data.svg"
   inkscape:export-filename="data-storage.svg"
   inkscape:export-xdpi="96"
   inkscape:export-ydpi="96"
   inkscape:version="1.2.1 (9c6d41e410, 2022-07-14, custom)"
   xmlns:inkscape="http://www.inkscape.org/namespaces/inkscape"
   xmlns:sodipodi="http://sodipodi.sourceforge.net/DTD/sodipodi-0.dtd"
   xmlns:xlink="http://www.w3.org/1999/xlink"
   xmlns="http://www.w3.org/2000/svg"
   xmlns:svg="http://www.w3.org/2000/svg"><defs
   id="defs71"><linearGradient
     inkscape:collect="always"
     id="linearGradient4677"><stop
       style="stop-color:#1d4ed8;stop-opacity:1;"
       offset="0"
       id="stop4673" /><stop
       style="stop-color:#60a5fa;stop-opacity:1;"
       offset="1"
       id="stop4675" /></linearGradient><linearGradient
     inkscape:collect="always"
     id="linearGradient1726"><stop
       style="stop-color:#1d4ed8;stop-opacity:1;"
       offset="0"
       id="stop1722" /><stop
       style="stop-color:#60a5fa;stop-opacity:1;"
       offset="0.99720871"
       id="stop1724" /></linearGradient><linearGradient
     inkscape:collect="always"
     xlink:href="#linearGradient1726"
     id="linearGradient1728"
     x1="28.998"
     y1="196.6655"
     x2="286.853"
     y2="196.6655"
     gradientUnits="userSpaceOnUse" /><linearGradient
     inkscape:collect="always"
     xlink:href="#linearGradient4677"
     id="linearGradient4679"
     x1="0.585719"
     y1="12"
     x2="23.41353"
     y2="12"
     gradientUnits="userSpaceOnUse" /><linearGradient
     inkscape:collect="always"
     xlink:href="#linearGradient1726"
     id="linearGradient6873"
     gradientUnits="userSpaceOnUse"
     x1="28.998"
     y1="196.6655"
     x2="286.853"
     y2="196.6655" /><linearGradient
     inkscape:collect="always"
     xlink:href="#linearGradient1726"
     id="linearGradient6875"
     gradientUnits="userSpaceOnUse"
     x1="28.998"
     y1="196.6655"
     x2="286.853"
     y2="196.6655" /><linearGradient
     inkscape:collect="always"
     xlink:href="#linearGradient1726"
     id="linearGradient6877"
     gradientUnits="userSpaceOnUse"
     x1="28.998"
     y1="196.6655"
     x2="286.853"
     y2="196.6655" /><linearGradient
     inkscape:collect="always"
     xlink:href="#linearGradient1726"
     id="linearGradient6879"
     gradientUnits="userSpaceOnUse"
     x1="28.998"
     y1="196.6655"
     x2="286.853"
     y2="196.6655" /><linearGradient
     inkscape:collect="always"
     xlink:href="#linearGradient1726"
     id="linearGradient6881"
     gradientUnits="userSpaceOnUse"
     x1="28.998"
     y1="196.6655"
     x2="286.853"
     y2="196.6655" /><linearGradient
     inkscape:collect="always"
     xlink:href="#linearGradient1726"
     id="linearGradient6883"
     gradientUnits="userSpaceOnUse"
     x1="28.998"
     y1="196.6655"
     x2="286.853"
     y2="196.6655" /><linearGradient
     inkscape:collect="always"
     xlink:href="#linearGradient1726"
     id="linearGradient6885"
     gradientUnits="userSpaceOnUse"
     x1="28.998"
     y1="196.6655"
     x2="286.853"
     y2="196.6655" /><linearGradient
     inkscape:collect="always"
     xlink:href="#linearGradient4677"
     id="linearGradient6887"
     gradientUnits="userSpaceOnUse"
     x1="0.585719"
     y1="12"
     x2="23.41353"
     y2="12" /></defs><sodipodi:namedview
   id="namedview69"
   pagecolor="#ffffff"
   bordercolor="#000000"
   borderopacity="0.25"
   inkscape:showpageshadow="2"
   inkscape:pageopacity="0.0"
   inkscape:pagecheckerboard="0"
   inkscape:deskcolor="#d1d1d1"
   showgrid="false"
   inkscape:zoom="0.74163348"
   inkscape:cx="-106.52162"
   inkscape:cy="233.94305"
   inkscape:window-width="1366"
   inkscape:window-height="703"
   inkscape:window-x="0"
   inkscape:window-y="0"
   inkscape:window-maximized="1"
   inkscape:current-layer="Layer_1" />






<g
   id="g38">
</g>
<g
   id="g40">
</g>
<g
   id="g42">
</g>
<g
   id="g44">
</g>
<g
   id="g46">
</g>
<g
   id="g48">
</g>
<g
   id="g50">
</g>
<g
   id="g52">
</g>
<g
   id="g54">
</g>
<g
   id="g56">
</g>
<g
   id="g58">
</g>
<g
   id="g60">
</g>
<g
   id="g62">
</g>
<g
   id="g64">
</g>
<g
   id="g66">
</g>
<g
   id="g6871"
   transform="translate(37.579712,15.92321)"
   inkscape:export-filename="links.svg"
   inkscape:export-xdpi="96"
   inkscape:export-ydpi="96"><g
     id="g6"
     style="fill:#1d4ed8;fill-opacity:1">
	<g
   id="g4"
   style="fill:#1d4ed8;fill-opacity:1">
		
	</g>
</g><g
     id="g1697"
     style="fill:url(#linearGradient1728);fill-opacity:1"><path
       d="m 29,254.596 v 39.646 c 0,15.908 12.741,32.313 34.954,45.006 9.69,5.537 20.636,10.139 32.498,13.729 4.553,-20.454 14.108,-39.674 28.012,-55.828 1.658,-1.927 3.385,-3.783 5.145,-5.601 C 88.843,286.909 53.62,273.553 29,254.596 Z"
       id="path2"
       style="fill:url(#linearGradient6873);fill-opacity:1" /><g
       id="g12"
       style="fill:url(#linearGradient6879);fill-opacity:1">
	<g
   id="g10"
   style="fill:url(#linearGradient6877);fill-opacity:1">
		<path
   d="m 161.708,198.434 c -41.461,0 -80.726,-9.038 -110.564,-25.448 -8.335,-4.585 -15.736,-9.625 -22.146,-15.046 v 28.252 2.161 c 0,15.908 12.741,32.311 34.954,45.005 25.811,14.749 60.528,22.873 97.755,22.873 9.469,0 18.774,-0.531 27.813,-1.558 7.651,-25.351 21.855,-47.598 40.495,-65 -21.107,5.722 -44.333,8.761 -68.307,8.761 z"
   id="path8"
   style="fill:url(#linearGradient6875);fill-opacity:1" />
	</g>
</g><g
       id="g18"
       style="fill:url(#linearGradient6885);fill-opacity:1">
	<g
   id="g16"
   style="fill:url(#linearGradient6883);fill-opacity:1">
		<path
   d="m 161.708,40.354 c -73.75,0 -125.145,31.872 -125.145,60.476 0,28.604 51.395,60.476 125.145,60.476 73.75,0 125.145,-31.872 125.145,-60.476 0,-28.604 -51.395,-60.476 -125.145,-60.476 z"
   id="path14"
   style="fill:url(#linearGradient6881);fill-opacity:1" />
	</g>
</g></g><g
     style="clip-rule:evenodd;fill:#eff6ff;fill-opacity:1;fill-rule:nonzero;stroke:url(#linearGradient4679);stroke-opacity:1"
     id="g280"
     transform="matrix(13.195601,-0.25785495,0.25785495,13.195601,97.326292,132.33499)"><path
       d="m 14.851,11.923 c -0.179,-0.641 -0.521,-1.246 -1.025,-1.749 -1.562,-1.562 -4.095,-1.563 -5.657,0 l -4.998,4.998 c -1.562,1.563 -1.563,4.095 0,5.657 1.562,1.563 4.096,1.561 5.656,0 l 3.842,-3.841 0.333,0.009 c 0.404,0 0.802,-0.04 1.189,-0.117 L 9.534,21.536 C 8.559,22.512 7.279,23 5.999,23 c -1.28,0 -2.56,-0.488 -3.535,-1.464 -1.952,-1.951 -1.952,-5.12 0,-7.071 L 7.462,9.467 c 0.975,-0.976 2.256,-1.464 3.536,-1.464 1.279,0 2.56,0.488 3.535,1.464 0.493,0.493 0.861,1.063 1.105,1.672 z M 9.148,12.07 c 0.178,0.643 0.521,1.25 1.026,1.756 1.562,1.563 4.096,1.561 5.656,0 l 4.999,-4.998 c 1.563,-1.562 1.563,-4.095 0,-5.657 -1.562,-1.562 -4.095,-1.563 -5.657,0 L 11.331,7.012 10.998,7.003 c -0.404,0 -0.802,0.04 -1.189,0.117 L 14.465,2.464 C 15.44,1.488 16.721,1 18.001,1 c 1.279,0 2.56,0.488 3.535,1.464 1.951,1.951 1.951,5.119 0,7.071 l -4.999,4.998 c -0.975,0.976 -2.255,1.464 -3.535,1.464 -1.28,0 -2.56,-0.488 -3.535,-1.464 C 8.973,14.038 8.604,13.466 8.36,12.855 Z"
       id="path271"
       style="opacity:1;fill:#eff6ff;fill-opacity:1;fill-rule:nonzero;stroke:url(#linearGradient6887);stroke-width:0.833452;stroke-miterlimit:4;stroke-dasharray:none;stroke-opacity:1;image-rendering:auto" /></g></g></svg>
