<?xml version="1.0" encoding="UTF-8" standalone="no"?>
<!-- Created with Inkscape (http://www.inkscape.org/) -->

<svg
   width="45.611099mm"
   height="44.552475mm"
   viewBox="0 0 45.611099 44.552475"
   version="1.1"
   id="svg5"
   sodipodi:docname="myfavvault.svg"
   inkscape:version="1.2.2 (b0a8486541, 2022-12-01)"
   xmlns:inkscape="http://www.inkscape.org/namespaces/inkscape"
   xmlns:sodipodi="http://sodipodi.sourceforge.net/DTD/sodipodi-0.dtd"
   xmlns="http://www.w3.org/2000/svg"
   xmlns:svg="http://www.w3.org/2000/svg">
  <sodipodi:namedview
     id="namedview6"
     pagecolor="#ffffff"
     bordercolor="#000000"
     borderopacity="0.25"
     inkscape:showpageshadow="2"
     inkscape:pageopacity="0.0"
     inkscape:pagecheckerboard="0"
     inkscape:deskcolor="#d1d1d1"
     inkscape:document-units="mm"
     showgrid="false"
     inkscape:zoom="2.4378322"
     inkscape:cx="37.738446"
     inkscape:cy="77.117695"
     inkscape:window-width="1920"
     inkscape:window-height="1008"
     inkscape:window-x="0"
     inkscape:window-y="0"
     inkscape:window-maximized="1"
     inkscape:current-layer="svg5" />
  <defs
     id="defs2" />
  <g
     id="layer1"
     transform="translate(-135.62351,-58.789831)"
     style="stroke:#a855f7;stroke-opacity:1"
     inkscape:export-filename="myfavvault2.svg"
     inkscape:export-xdpi="96"
     inkscape:export-ydpi="96">
    <path
       style="fill:none;fill-opacity:1;stroke:#a855f7;stroke-width:1.99977;stroke-linecap:butt;stroke-linejoin:round;stroke-dasharray:none;stroke-dashoffset:0;stroke-opacity:1;paint-order:normal"
       id="path973"
       d="m 63.519278,189.43235 c -7.162944,5.89717 0.802932,-4.37403 -8.458286,-3.81339 -9.261217,0.56065 -0.114483,9.79591 -7.936503,4.80587 -7.82202,-4.99003 4.408065,-0.58801 1.012988,-9.2227 -3.395078,-8.6347 -9.351837,2.91822 -7.023168,-6.06297 2.32867,-8.98119 1.921402,4.01061 9.084346,-1.88657 7.162944,-5.89717 -5.665269,-7.99234 3.595948,-8.55299 9.261217,-0.56064 -3.220574,3.06671 4.601447,8.05675 7.82202,4.99004 5.850507,-7.85776 9.245585,0.77693 3.395077,8.63469 -3.911826,-2.11528 -6.240496,6.86591 -2.328669,8.98119 9.281083,3.13598 2.118139,9.03316 z"
       transform="matrix(1.5216722,0,0,1.5216722,75.403377,-190.21897)" />
  </g>
</svg>
