<svg width="66" height="64" viewBox="0 0 66 64" fill="none" xmlns="http://www.w3.org/2000/svg">
<path d="M52.7226 56.376C36.9507 69.2666 54.4906 46.8148 34.0985 48.0403C13.7063 49.2658 33.8464 69.4532 16.6232 58.5455C-0.599989 47.6378 26.3292 57.2601 18.8537 38.3856C11.3781 19.5111 -1.73799 44.7645 3.38947 25.1326C8.51693 5.50064 7.62018 33.8994 23.3922 21.0087C39.1641 8.11815 10.9179 3.53832 31.31 2.3128C51.7021 1.0873 24.2187 9.01629 41.4419 19.924C58.6651 30.8317 54.324 2.74776 61.7996 21.6223C69.2751 40.4968 53.1862 16.9985 48.0587 36.6304C42.9313 56.2624 68.4946 43.4854 52.7226 56.376Z" fill="black" stroke="black" stroke-width="2" stroke-linejoin="round"/>
</svg>
